<svg width="49" height="42" viewBox="0 0 49 42" fill="none" xmlns="http://www.w3.org/2000/svg">
<g clip-path="url(#clip0_1_478)">
<path d="M27.6279 17.769L24.7373 18.394L24.3857 23.0815V23.8042H24.3467L23.917 29.5269C23.917 29.5269 23.917 29.5301 23.917 29.5366C23.917 29.5431 23.917 29.5464 23.917 29.5464C23.917 29.6115 23.9007 29.6701 23.8682 29.7222C23.8356 29.7743 23.7933 29.8133 23.7412 29.8394C23.7152 29.8524 23.6924 29.8654 23.6729 29.8784C23.6533 29.8914 23.6305 29.8979 23.6045 29.8979C23.5915 29.8979 23.5752 29.9012 23.5557 29.9077C23.5361 29.9142 23.5133 29.9175 23.4873 29.9175H9.60059C9.60059 29.9175 9.59733 29.9175 9.59082 29.9175C9.58431 29.9175 9.58105 29.9175 9.58105 29.9175C9.47689 29.9175 9.38574 29.8784 9.30762 29.8003C9.22949 29.7222 9.18392 29.631 9.1709 29.5269C9.1709 29.4097 9.21322 29.3088 9.29785 29.2241C9.38249 29.1395 9.4834 29.0972 9.60059 29.0972H23.1162L23.2139 27.6323H9.4248L7.97949 19.6636L23.9561 17.5542L23.9756 17.3198C23.9886 17.2026 24.0342 17.1082 24.1123 17.0366C24.1904 16.965 24.2881 16.9292 24.4053 16.9292C24.4053 16.9292 24.4085 16.9292 24.415 16.9292C24.4215 16.9292 24.4313 16.9292 24.4443 16.9292C24.5485 16.9422 24.6364 16.9845 24.708 17.0562C24.7796 17.1278 24.8154 17.2157 24.8154 17.3198C24.8154 17.3328 24.8154 17.3426 24.8154 17.3491C24.8154 17.3556 24.8154 17.3654 24.8154 17.3784L24.7959 17.5347L27.4717 16.9683C27.4847 16.9683 27.4977 16.9683 27.5107 16.9683C27.5238 16.9683 27.5368 16.9683 27.5498 16.9683C27.654 16.9683 27.7451 16.9976 27.8232 17.0562C27.9014 17.1147 27.9469 17.1961 27.96 17.3003C27.973 17.3133 27.9795 17.3263 27.9795 17.3394C27.9795 17.3524 27.9795 17.3654 27.9795 17.3784C27.9795 17.4696 27.9469 17.5542 27.8818 17.6323C27.8167 17.7104 27.7386 17.756 27.6475 17.769H27.6279ZM21.1826 26.812L23.2725 26.8315L23.5068 23.8042H21.1045L21.1826 26.812ZM11.085 20.0933L8.95605 20.3667L9.4248 22.9839H11.3193L11.085 20.0933ZM11.3975 23.8042H9.56152L10.1084 26.812H11.6318L11.3975 23.8042ZM15.0303 19.5659L11.9053 19.9761L12.1592 22.9839H15.2451L15.0303 19.5659ZM15.3037 23.8042H12.2178L12.4717 26.812H15.499L15.3037 23.8042ZM20.1279 18.8823L15.8506 19.4487L16.085 22.9839H20.2451L20.1279 18.8823ZM20.2842 23.8042H16.124L16.3389 26.812H20.3428L20.2842 23.8042ZM20.9678 18.7847L21.085 22.9839H23.5654L23.8975 18.394L20.9678 18.7847ZM12.2178 31.0894C12.6214 31.0894 12.9665 31.2358 13.2529 31.5288C13.5394 31.8218 13.6826 32.1701 13.6826 32.5737C13.6826 32.9904 13.5361 33.3452 13.2432 33.6382C12.9502 33.9312 12.5954 34.0776 12.1787 34.0776C11.762 34.0776 11.4072 33.9312 11.1143 33.6382C10.8213 33.3452 10.6748 32.9904 10.6748 32.5737C10.6878 32.1571 10.8408 31.8055 11.1338 31.519C11.4268 31.2326 11.7816 31.0894 12.1982 31.0894C12.1982 31.0894 12.2048 31.0894 12.2178 31.0894ZM22.3545 30.1909C22.8883 30.2039 23.3408 30.3993 23.7119 30.7769C24.083 31.1545 24.2686 31.6102 24.2686 32.144C24.2686 32.6779 24.0798 33.1336 23.7021 33.5112C23.3245 33.8888 22.8688 34.0776 22.335 34.0776C21.7881 34.0776 21.3258 33.8888 20.9482 33.5112C20.5706 33.1336 20.3818 32.6779 20.3818 32.144C20.3818 32.144 20.3818 32.1408 20.3818 32.1343C20.3818 32.1278 20.3818 32.1245 20.3818 32.1245C20.3949 31.5907 20.5902 31.1349 20.9678 30.7573C21.3454 30.3797 21.8011 30.1909 22.335 30.1909C22.335 30.1909 22.3382 30.1909 22.3447 30.1909C22.3512 30.1909 22.3545 30.1909 22.3545 30.1909Z" fill="white"/>
</g>
<rect x="24.9795" y="0.503418" width="24" height="24" rx="12" fill="white"/>
<path d="M37.0695 17.7563C36.0076 17.7563 35.1509 17.271 34.4992 16.3003C33.852 15.325 33.5285 14.0399 33.5285 12.4448C33.5285 10.8498 33.852 9.56689 34.4992 8.59619C35.1509 7.62093 36.0076 7.1333 37.0695 7.1333C38.1359 7.1333 38.9927 7.61865 39.6398 8.58936C40.2869 9.56006 40.6105 10.8452 40.6105 12.4448C40.6105 14.0399 40.2869 15.325 39.6398 16.3003C38.9927 17.271 38.1359 17.7563 37.0695 17.7563ZM37.0695 16.7446C38.4777 16.7446 39.1818 15.3114 39.1818 12.4448C39.1818 9.57829 38.4777 8.14502 37.0695 8.14502C35.6658 8.14502 34.964 9.57829 34.964 12.4448C34.964 15.3114 35.6658 16.7446 37.0695 16.7446Z" fill="#BF0830"/>
<rect x="1.47949" y="8.00342" width="33" height="33" rx="16.5" stroke="white"/>
<defs>
<clipPath id="clip0_1_478">
<rect width="20" height="20" fill="white" transform="matrix(1 0 0 -1 7.97949 35.5034)"/>
</clipPath>
</defs>
</svg>
