<svg width="35" height="35" viewBox="0 0 35 35" fill="none" xmlns="http://www.w3.org/2000/svg">
<g clip-path="url(#clip0_1_484)">
<path d="M27.8623 14.7144C27.7972 13.894 27.6117 13.1388 27.3057 12.4487C26.9997 11.7586 26.6058 11.1629 26.124 10.6616C25.6423 10.1603 25.0921 9.76969 24.4736 9.48975C23.8551 9.2098 23.1878 9.06982 22.4717 9.06982C21.4951 9.08285 20.6032 9.3335 19.7959 9.82178C18.9886 10.3101 18.3571 10.9513 17.9014 11.7456C17.4587 10.9513 16.8402 10.3101 16.0459 9.82178C15.2516 9.3335 14.3727 9.08285 13.4092 9.06982C12.693 9.06982 12.0257 9.2098 11.4072 9.48975C10.7887 9.76969 10.2386 10.1603 9.75684 10.6616C9.27507 11.1629 8.88118 11.7586 8.5752 12.4487C8.26921 13.1388 8.08366 13.8875 8.01855 14.6948C8.00553 14.786 7.99577 14.8804 7.98926 14.978C7.98275 15.0757 7.97949 15.1766 7.97949 15.2808C7.97949 15.5672 7.99902 15.8439 8.03809 16.1108C8.07715 16.3778 8.12923 16.6349 8.19434 16.8823C8.41569 17.8068 8.764 18.6597 9.23926 19.4409C9.71452 20.2222 10.2842 20.9188 10.9482 21.5308L17.8818 27.9565L24.9326 21.5503C25.5967 20.9383 26.1663 20.2384 26.6416 19.4507C27.1169 18.6629 27.4652 17.8133 27.6865 16.9019C27.7516 16.6414 27.8037 16.3778 27.8428 16.1108C27.8818 15.8439 27.9014 15.5672 27.9014 15.2808C27.9014 15.1766 27.8981 15.0757 27.8916 14.978C27.8851 14.8804 27.8753 14.7795 27.8623 14.6753V14.7144ZM26.9443 16.6675C26.736 17.5269 26.417 18.3179 25.9873 19.0405C25.5576 19.7632 25.0368 20.3979 24.4248 20.9448L17.8818 26.9214L11.4561 20.9644C10.8441 20.4045 10.3232 19.7632 9.89355 19.0405C9.46387 18.3179 9.15137 17.5464 8.95605 16.7261C8.89095 16.4917 8.83887 16.2541 8.7998 16.0132C8.76074 15.7723 8.74121 15.5347 8.74121 15.3003C8.74121 15.2091 8.74447 15.1245 8.75098 15.0464C8.75749 14.9683 8.76074 14.8901 8.76074 14.812L8.78027 14.7925C8.84538 14.0763 9.00814 13.4155 9.26855 12.8101C9.52897 12.2046 9.86426 11.6838 10.2744 11.2476C10.6846 10.8114 11.1566 10.4696 11.6904 10.2222C12.2243 9.97477 12.7972 9.85107 13.4092 9.85107C14.3467 9.87712 15.1865 10.1603 15.9287 10.7007C16.6709 11.241 17.2048 11.9279 17.5303 12.7612L17.8818 13.6401L18.2334 12.7808C18.5719 11.9344 19.1253 11.2378 19.8936 10.6909C20.6618 10.144 21.5212 9.8641 22.4717 9.85107C23.0837 9.85107 23.6566 9.97477 24.1904 10.2222C24.7243 10.4696 25.1963 10.8146 25.6064 11.2573C26.0166 11.7 26.3551 12.2241 26.6221 12.8296C26.889 13.4351 27.055 14.1024 27.1201 14.8315C27.1201 14.8966 27.1234 14.9683 27.1299 15.0464C27.1364 15.1245 27.1396 15.2091 27.1396 15.3003C27.1396 15.5347 27.1234 15.7723 27.0908 16.0132C27.0583 16.2541 27.0094 16.4852 26.9443 16.7065V16.6675Z" fill="white"/>
</g>
<rect x="1.47949" y="1.00342" width="33" height="33" rx="16.5" stroke="white"/>
<defs>
<clipPath id="clip0_1_484">
<rect width="20" height="20" fill="white" transform="matrix(1 0 0 -1 7.97949 28.5034)"/>
</clipPath>
</defs>
</svg>
