<svg width="35" height="35" viewBox="0 0 35 35" fill="none" xmlns="http://www.w3.org/2000/svg">
<g clip-path="url(#clip0_1_491)">
<path d="M9.03418 26.2573V27.7417H24.5029V26.5308L24.4834 26.3354C24.4183 25.7625 24.262 25.2254 24.0146 24.7241C23.7673 24.2228 23.4548 23.7769 23.0771 23.3862C22.6605 22.9696 22.1982 22.5985 21.6904 22.2729C21.1826 21.9474 20.6488 21.6805 20.0889 21.4722C19.8675 21.6414 19.6429 21.8009 19.415 21.9507C19.1872 22.1004 18.9495 22.2339 18.7021 22.3511C18.4027 22.4813 18.0934 22.5822 17.7744 22.6538C17.4554 22.7254 17.1201 22.7677 16.7686 22.7808C16.404 22.7808 16.0557 22.7417 15.7236 22.6636C15.3916 22.5854 15.0758 22.4748 14.7764 22.3315C14.516 22.2013 14.2718 22.0549 14.0439 21.8921C13.8161 21.7293 13.6045 21.5503 13.4092 21.355C12.8102 21.5503 12.2568 21.8075 11.749 22.1265C11.2412 22.4455 10.779 22.8133 10.3623 23.23C9.9847 23.6206 9.67871 24.0666 9.44434 24.5679C9.20996 25.0692 9.07324 25.6063 9.03418 26.1792V26.1987V26.2573ZM16.7686 8.50342C17.4977 8.51644 18.1748 8.68571 18.7998 9.01123C19.4248 9.33675 19.9456 9.76644 20.3623 10.3003C20.818 10.8732 21.1729 11.5145 21.4268 12.2241C21.6807 12.9338 21.8076 13.6857 21.8076 14.48C21.8076 15.2612 21.6807 16.0099 21.4268 16.7261C21.1729 17.4422 20.818 18.0868 20.3623 18.6597C19.9456 19.1935 19.4248 19.6232 18.7998 19.9487C18.1748 20.2743 17.4977 20.437 16.7686 20.437C16.0264 20.437 15.3428 20.2743 14.7178 19.9487C14.0928 19.6232 13.5719 19.1935 13.1553 18.6597C12.7126 18.0737 12.3643 17.4259 12.1104 16.7163C11.8564 16.0067 11.7295 15.2612 11.7295 14.48C11.7295 13.6857 11.8564 12.9338 12.1104 12.2241C12.3643 11.5145 12.7126 10.8667 13.1553 10.2808C13.585 9.74691 14.1123 9.32048 14.7373 9.00146C15.3623 8.68245 16.0394 8.51644 16.7686 8.50342ZM19.542 10.9058C19.2165 10.4761 18.8128 10.1343 18.3311 9.88037C17.8493 9.62646 17.3285 9.49951 16.7686 9.49951C16.1956 9.49951 15.6683 9.62646 15.1865 9.88037C14.7048 10.1343 14.3076 10.4761 13.9951 10.9058C13.6175 11.4006 13.3213 11.9507 13.1064 12.5562C12.8916 13.1616 12.7842 13.8029 12.7842 14.48C12.7842 15.144 12.8916 15.7821 13.1064 16.394C13.3213 17.006 13.6175 17.5594 13.9951 18.0542C14.3076 18.4709 14.7048 18.8062 15.1865 19.0601C15.6683 19.314 16.1956 19.4409 16.7686 19.4409C17.3285 19.4409 17.8493 19.314 18.3311 19.0601C18.8128 18.8062 19.21 18.4644 19.5225 18.0347C19.9131 17.5529 20.2158 17.006 20.4307 16.394C20.6455 15.7821 20.7529 15.144 20.7529 14.48C20.7529 13.8029 20.6423 13.1584 20.4209 12.5464C20.1995 11.9344 19.9001 11.381 19.5225 10.8862L19.542 10.9058ZM8.01855 25.8081C8.09668 25.1701 8.27246 24.5776 8.5459 24.0308C8.81934 23.4839 9.16439 23.0021 9.58105 22.5854C10.0889 22.0516 10.6618 21.5926 11.2998 21.2085C11.9378 20.8244 12.6149 20.5282 13.3311 20.3198L13.7412 20.2222L13.9756 20.4761C14.1579 20.6714 14.3532 20.8504 14.5615 21.0132C14.7699 21.1759 14.9977 21.3159 15.2451 21.4331C15.4795 21.5503 15.7236 21.6382 15.9775 21.6968C16.2314 21.7554 16.4951 21.7847 16.7686 21.7847C17.029 21.7847 17.2829 21.7554 17.5303 21.6968C17.7777 21.6382 18.0186 21.5633 18.2529 21.4722C18.4873 21.355 18.7087 21.2215 18.917 21.0718C19.1253 20.922 19.3141 20.7495 19.4834 20.5542L19.7178 20.3003L20.0498 20.4175C20.805 20.6519 21.5016 20.9676 22.1396 21.3647C22.7777 21.7619 23.3506 22.2209 23.8584 22.7417C24.262 23.1453 24.6038 23.6043 24.8838 24.1187C25.1637 24.633 25.3623 25.1831 25.4795 25.769L25.5576 25.8081V28.7378H7.97949V25.8081H8.01855Z" fill="white"/>
</g>
<rect x="1.47949" y="1.00342" width="33" height="33" rx="16.5" stroke="white"/>
<defs>
<clipPath id="clip0_1_491">
<rect width="20" height="20" fill="white" transform="matrix(1 0 0 -1 7.97949 28.5034)"/>
</clipPath>
</defs>
</svg>
