<svg width="22" height="23" viewBox="0 0 22 23" fill="none" xmlns="http://www.w3.org/2000/svg">
<path d="M21.8623 21.7944L15.7393 15.3921C16.5127 14.6043 17.1214 13.6912 17.5654 12.6528C18.0094 11.6144 18.2314 10.508 18.2314 9.3335C18.2314 8.14469 18.0059 7.02751 17.5547 5.98193C17.1035 4.93636 16.4876 4.02327 15.707 3.24268C14.9264 2.46208 14.0133 1.84261 12.9678 1.38428C11.9222 0.925944 10.805 0.696777 9.61621 0.696777C8.41309 0.696777 7.28874 0.925944 6.24316 1.38428C5.19759 1.84261 4.28451 2.46208 3.50391 3.24268C2.72331 4.02327 2.10742 4.93636 1.65625 5.98193C1.20508 7.02751 0.979492 8.14469 0.979492 9.3335C0.979492 10.5223 1.20508 11.6395 1.65625 12.6851C2.10742 13.7306 2.72331 14.6437 3.50391 15.4243C4.28451 16.2049 5.19759 16.8208 6.24316 17.272C7.28874 17.7231 8.41309 17.9487 9.61621 17.9487C9.61621 17.9487 9.61979 17.9487 9.62695 17.9487C9.63411 17.9487 9.6377 17.9487 9.6377 17.9487C10.6833 17.9487 11.6787 17.7697 12.624 17.4116C13.5693 17.0535 14.4144 16.5594 15.1592 15.9292L21.2822 22.3745C21.3109 22.4175 21.3503 22.4497 21.4004 22.4712C21.4505 22.4927 21.5114 22.5034 21.583 22.5034C21.626 22.5034 21.6725 22.4927 21.7227 22.4712C21.7728 22.4497 21.8193 22.4246 21.8623 22.396C21.891 22.353 21.916 22.3065 21.9375 22.2563C21.959 22.2062 21.9697 22.1525 21.9697 22.0952C21.9697 22.0379 21.9626 21.9842 21.9482 21.9341C21.9339 21.884 21.9053 21.8374 21.8623 21.7944ZM9.6377 17.1108C9.62337 17.1108 9.60905 17.1108 9.59473 17.1108C9.5804 17.1108 9.57324 17.1108 9.57324 17.1108C8.47038 17.1108 7.44271 16.9067 6.49023 16.4985C5.53776 16.0903 4.70345 15.5282 3.9873 14.812C3.27116 14.0959 2.7054 13.258 2.29004 12.2983C1.87467 11.3387 1.66699 10.3146 1.66699 9.22607C1.66699 8.13753 1.87467 7.11344 2.29004 6.15381C2.7054 5.19417 3.27116 4.35986 3.9873 3.65088C4.70345 2.94189 5.53776 2.37972 6.49023 1.96436C7.44271 1.54899 8.47038 1.34131 9.57324 1.34131C10.6618 1.34131 11.6823 1.54899 12.6348 1.96436C13.5872 2.37972 14.4215 2.94189 15.1377 3.65088C15.8538 4.35986 16.4196 5.19417 16.835 6.15381C17.2503 7.11344 17.458 8.13753 17.458 9.22607C17.458 9.22607 17.458 9.22965 17.458 9.23682C17.458 9.24398 17.458 9.24756 17.458 9.24756C17.458 10.3361 17.2539 11.3566 16.8457 12.3091C16.4375 13.2616 15.8789 14.0923 15.1699 14.8013C14.4609 15.5103 13.6302 16.0724 12.6777 16.4878C11.7253 16.9032 10.7119 17.1108 9.6377 17.1108Z" fill="#7E7E7E"/>
</svg>
